PathFileType	4	(X/Y/Z)	OpenSim_static_markers.trc
DataRate	CameraRate	NumFrames	NumMarkers	Units	OrigDataRate	OrigDataStartFrame	OrigNumFrames
100	100	6	35	m	100	1	6
Frame#	Time	APEX	L1MT	L2MT	L5MT	LASI	LCAL	LGTR	LLEP	LMEP	LPS1	LPS2	LSH1	LSH2	LSH3	LTH1	LTH2	LTH3	LTTB	R1MT	R2MT	R5MT	RASI	RCAL	RGTR	RLEP	RMEP	RPS1	RPS2	RSH1	RSH2	RSH3	RTH1	RTH2	RTH3	RTTB
				X1	Y1	Z1	X2	Y2	Z2	X3	Y3	Z3	X4	Y4	Z4	X5	Y5	Z5	X6	Y6	Z6	X7	Y7	Z7	X8	Y8	Z8	X9	Y9	Z9	X10	Y10	Z10	X11	Y11	Z11	X12	Y12	Z12	X13	Y13	Z13	X14	Y14	Z14	X15	Y15	Z15	X16	Y16	Z16	X17	Y17	Z17	X18	Y18	Z18	X19	Y19	Z19	X20	Y20	Z20	X21	Y21	Z21	X22	Y22	Z22	X23	Y23	Z23	X24	Y24	Z24	X25	Y25	Z25	X26	Y26	Z26	X27	Y27	Z27	X28	Y28	Z28	X29	Y29	Z29	X30	Y30	Z30	X31	Y31	Z31	X32	Y32	Z32	X33	Y33	Z33	X34	Y34	Z34	X35		Y35	Z35	

1	0	0.91232900	1.71368500	-0.49864200	0.87502300	0.05933100	-0.57981500	0.88569300	0.07085100	-0.62265000	0.87483300	0.04404900	-0.67655300	0.83273600	1.01586600	-0.64001500	0.68772000	0.06829800	-0.63178700	0.70017500	0.96254600	-0.67300600	0.81456400	0.51853700	-0.64832900	0.82359000	0.51615600	-0.54185400	0.66958900	1.11313600	-0.51494500	0.64797800	1.04609500	-0.52132000	0.75447200	0.45389200	-0.67464300	0.74224400	0.35304300	-0.68988500	0.80000800	0.34413300	-0.67587200	0.75187800	0.84023200	-0.70385800	0.77104700	0.73801100	-0.69193300	1.03908200	0.36256800	-0.64151000	0.83743000	0.43671500	-0.60967300	0.86309100	0.05005900	-0.39151700	0.86432300	0.06735200	-0.34181600	0.83405500	0.04720500	-0.29381200	0.82998600	1.03204800	-0.33723900	0.66799000	0.06316900	-0.37990900	0.71604100	0.93100000	-0.30418200	0.80709400	0.52283600	-0.32747000	0.85416800	0.73707200	-0.46903600	0.67127300	1.11344200	-0.46681400	0.64793800	1.03962800	-0.45386500	0.78876500	0.42002100	-0.30222700	0.77283700	0.31648500	-0.29692000	0.71330900	0.32646500	-0.29470500	0.80396300	0.83851700	-0.28293100	0.80955600	0.73490900	-0.29731700	0.75085900	0.73117300	-0.30244000	0.82967500	0.42603800	-0.36649600
2	0.01000000	0.91031400	1.71526000	-0.49810100	0.87491600	0.05942100	-0.57981200	0.88556400	0.07120100	-0.62278900	0.87473800	0.04412400	-0.67653300	0.83319400	1.01619200	-0.63922400	0.68757400	0.06821900	-0.63174800	0.70027000	0.96269200	-0.67181900	0.81406100	0.51858600	-0.64780800	0.82310500	0.51606200	-0.54117700	0.67056100	1.11347700	-0.51374700	0.64865400	1.04634300	-0.52005900	0.75411000	0.45396000	-0.67431100	0.74189000	0.35304500	-0.68950200	0.79964000	0.34417600	-0.67538100	0.75147400	0.84049500	-0.70295700	0.77066100	0.73834600	-0.69077300	1.03605700	0.37050600	-0.64213200	0.83712500	0.43678500	-0.60918700	0.86305800	0.05008200	-0.39152300	0.86424800	0.06738500	-0.34181300	0.83413800	0.04728900	-0.29381400	0.83101100	1.03119900	-0.33636200	0.66795800	0.06302000	-0.37989500	0.71747700	0.93094700	-0.30321300	0.80677700	0.52272600	-0.32688900	0.85456800	0.73503100	-0.46820400	0.67235300	1.11357200	-0.46522100	0.64892900	1.03978300	-0.45249700	0.78833500	0.41986900	-0.30183200	0.77239400	0.31629300	-0.29667700	0.71284200	0.32643100	-0.29460600	0.80397600	0.83814900	-0.28217400	0.80962300	0.73448600	-0.29668800	0.75079200	0.73102100	-0.30237800	0.82967300	0.42593100	-0.36572600
3	0.02000000	0.90835200	1.71676900	-0.49754200	0.87482700	0.05950500	-0.57978200	0.88544300	0.07136800	-0.62281600	0.87461900	0.04421800	-0.67651200	0.83375700	1.01625700	-0.63866200	0.68745500	0.06814100	-0.63167100	0.70044200	0.96301100	-0.67065800	0.81373300	0.51864600	-0.64735000	0.82268800	0.51598600	-0.54042500	0.67136100	1.11361000	-0.51236100	0.64923900	1.04652500	-0.51847100	0.75396100	0.45400100	-0.67392300	0.74168000	0.35301800	-0.68910000	0.79945100	0.34421100	-0.67491700	0.75128400	0.84073900	-0.70181800	0.77083700	0.73789600	-0.68951000	1.03303500	0.37844500	-0.64275200	0.83688800	0.43679100	-0.60867200	0.86298300	0.05011200	-0.39152200	0.86408000	0.06737800	-0.34180600	0.83412900	0.04733800	-0.29376300	0.83218200	1.03099400	-0.33547400	0.66794400	0.06291500	-0.37988900	0.71845500	0.93037000	-0.30292600	0.80646300	0.52264200	-0.32620400	0.85496900	0.73299400	-0.46737500	0.67333400	1.11379500	-0.46405900	0.64999500	1.03992200	-0.45127100	0.78818300	0.41967300	-0.30143200	0.77217500	0.31611700	-0.29640400	0.71268700	0.32629700	-0.29455500	0.80432400	0.83788400	-0.28137500	0.80981400	0.73419600	-0.29605600	0.75090800	0.73097300	-0.30234000	0.82981500	0.42579500	-0.36492400
4	0.03000000	0.90675200	1.71812100	-0.49701500	0.87471300	0.05961000	-0.57978000	0.88529900	0.07153000	-0.62281600	0.87448000	0.04431100	-0.67651700	0.83410700	1.01588900	-0.63773000	0.68734000	0.06807500	-0.63159600	0.70079200	0.96335900	-0.66929000	0.81357500	0.51896300	-0.64705900	0.82248800	0.51590900	-0.53976700	0.67213600	1.11394800	-0.51113000	0.64993300	1.04677700	-0.51728200	0.75399200	0.45400100	-0.67349700	0.74165000	0.35307000	-0.68864900	0.79939800	0.34417100	-0.67444700	0.75124700	0.84084400	-0.70097300	0.77071800	0.73779900	-0.68857100	1.03001000	0.38637900	-0.64337200	0.83679400	0.43673100	-0.60801500	0.86292700	0.05014100	-0.39152600	0.86399900	0.06739100	-0.34181000	0.83410500	0.04735400	-0.29373000	0.83345800	1.03023900	-0.33463200	0.66793200	0.06278800	-0.37991500	0.71928800	0.92999200	-0.30235900	0.80642300	0.52247500	-0.32564600	0.85537000	0.73095700	-0.46654300	0.67428100	1.11386500	-0.46265200	0.65086700	1.03989300	-0.44978500	0.78835300	0.41941500	-0.30108900	0.77217900	0.31588800	-0.29623200	0.71271700	0.32611000	-0.29440800	0.80474900	0.83760000	-0.28067200	0.81013400	0.73396600	-0.29538700	0.75137600	0.73106900	-0.30204600	0.83007500	0.42554000	-0.36423800
5	0.04000000	0.90519200	1.71939200	-0.49663200	0.87457100	0.05973000	-0.57979400	0.88518000	0.07168200	-0.62282600	0.87436100	0.04439700	-0.67653000	0.83439800	1.01589500	-0.63690900	0.68721100	0.06799800	-0.63152000	0.70123400	0.96357000	-0.66818000	0.81369600	0.51894000	-0.64660700	0.82247200	0.51580900	-0.53908500	0.67313000	1.11394200	-0.50963000	0.65044900	1.04702700	-0.51603300	0.75422900	0.45404500	-0.67312500	0.74176500	0.35311700	-0.68818100	0.79952300	0.34416600	-0.67392400	0.75133700	0.84096000	-0.70017700	0.77005800	0.73846500	-0.68853700	1.02698900	0.39431400	-0.64399000	0.83692200	0.43662700	-0.60740400	0.86288400	0.05014400	-0.39154300	0.86392700	0.06740200	-0.34182100	0.83397200	0.04721500	-0.29376200	0.83431000	1.02952600	-0.33364600	0.66790100	0.06266600	-0.37994400	0.72040900	0.92978000	-0.30162300	0.80679100	0.52226700	-0.32520200	0.85577400	0.72892000	-0.46571200	0.67520000	1.11388100	-0.46129900	0.65145000	1.04015500	-0.44848300	0.78883000	0.41916700	-0.30073700	0.77245900	0.31561300	-0.29602000	0.71296100	0.32590900	-0.29420900	0.80521300	0.83735100	-0.28011000	0.81062100	0.73370900	-0.29484500	0.75207500	0.73102200	-0.30156100	0.83053000	0.42528900	-0.36382000
6	0.05000000	0.90393000	1.72028400	-0.49598200	0.87442100	0.05983000	-0.57979600	0.88503500	0.07185900	-0.62283900	0.87413400	0.04458800	-0.67645300	0.83457500	1.01569400	-0.63601600	0.68707000	0.06788100	-0.63140500	0.70135900	0.96362600	-0.66706000	0.81418000	0.51854200	-0.64569800	0.82269500	0.51571500	-0.53840100	0.67357500	1.11394400	-0.50846300	0.65090400	1.04721000	-0.51519200	0.75471100	0.45404400	-0.67275800	0.74205800	0.35316300	-0.68772500	0.79973600	0.34407400	-0.67333100	0.75155100	0.84099100	-0.69907000	0.77031500	0.73842700	-0.68779900	1.02396400	0.40225200	-0.64460900	0.83707700	0.43631000	-0.60684200	0.86286400	0.05013800	-0.39158400	0.86373000	0.06732700	-0.34172900	0.83392300	0.04719900	-0.29376600	0.83517000	1.02891600	-0.33319000	0.66787300	0.06259600	-0.37996500	0.72103400	0.92904900	-0.30100800	0.80758100	0.52171200	-0.32476000	0.85617400	0.72688300	-0.46488000	0.67593800	1.11388200	-0.46016900	0.65204500	1.04016100	-0.44738300	0.78955200	0.41883600	-0.30047400	0.77302000	0.31532300	-0.29585900	0.71346300	0.32571500	-0.29396800	0.80591300	0.83713300	-0.27947800	0.81130000	0.73343600	-0.29440900	0.75290800	0.73072100	-0.30123800	0.83124000	0.42498000	-0.36374800
